<svg xmlns="http://www.w3.org/2000/svg" width="135" height="24" viewBox="0 0 135 24">
    <g fill="#212121" fill-rule="nonzero">
        <path d="M33.712 9.433c-1.089 1.06-1.619 2.344-1.619 3.85 0 1.536.53 2.791 1.59 3.824 1.061 1.033 2.373 1.535 3.964 1.535.948 0 1.925-.251 2.874-.754v-3.097c-.558.697-1.06 1.144-1.48 1.395-.446.251-.92.363-1.506.363-.893 0-1.619-.307-2.205-.921-.558-.614-.837-1.395-.837-2.372 0-.949.307-1.73.893-2.344.586-.614 1.312-.921 2.205-.921.558 0 1.06.14 1.479.39.418.252.92.698 1.45 1.368V8.595a5.994 5.994 0 0 0-2.846-.725c-1.562 0-2.874.53-3.962 1.563zM48.502 7.87c-1.004 0-1.953.39-2.79 1.144V.642H43.34v17.72h2.372v-4.939c0-1.256.167-2.149.502-2.65.335-.503.92-.754 1.73-.754.642 0 1.116.195 1.396.558.279.363.446.949.446 1.786v6.056h2.372v-6.307c0-1.424-.307-2.456-.893-3.126-.67-.753-1.59-1.116-2.763-1.116zM62.68 9.32c-.95-.976-2.01-1.478-3.21-1.478-1.368 0-2.512.502-3.433 1.535-.92 1.032-1.367 2.288-1.367 3.823 0 1.563.446 2.874 1.367 3.907s2.093 1.535 3.516 1.535c1.117 0 2.177-.447 3.126-1.368v1.06h2.372V8.15H62.68V9.32zm-.643 6.336c-.53.614-1.256.893-2.12.893-.81 0-1.508-.307-2.038-.921-.53-.614-.781-1.423-.781-2.4 0-.921.279-1.675.809-2.316.558-.614 1.228-.921 2.037-.921.865 0 1.563.307 2.093.92.53.615.81 1.424.81 2.373 0 .949-.28 1.73-.81 2.372zM71.553 8.12c-.334.168-.725.475-1.144.922V8.12h-2.372v10.214h2.372v-5.302c0-1.954.642-2.93 1.926-2.93.418 0 .865.167 1.312.474l1.088-2.15c-.67-.418-1.34-.613-1.954-.613-.474.056-.893.14-1.228.307zM83.61 9.293c-.866-.949-1.926-1.451-3.21-1.451-1.48 0-2.651.558-3.544 1.646-.837 1.033-1.256 2.317-1.256 3.796 0 1.535.447 2.818 1.34 3.823s2.037 1.507 3.432 1.507c1.228 0 2.316-.474 3.237-1.451v1.423c0 2.121-.865 3.181-2.595 3.181-.949 0-1.647-.307-2.149-.948-.223-.28-.363-.67-.446-1.172h-2.372c.139 1.339.67 2.372 1.562 3.125.893.726 2.01 1.088 3.377 1.088 1.619 0 2.874-.53 3.795-1.59.503-.558.81-1.2.977-1.982a8.2 8.2 0 0 0 .14-.976c.028-.363.055-.782.055-1.284v-9.88h-2.372v1.145h.028zm-.643 6.28c-.53.669-1.227.976-2.148.976s-1.619-.335-2.121-.977c-.475-.586-.698-1.367-.698-2.288 0-.95.223-1.703.698-2.317.53-.67 1.228-1.004 2.12-1.004.838 0 1.535.307 2.066.92.53.587.809 1.396.809 2.373 0 .949-.251 1.702-.726 2.316zM95.051 16.13c-.39.28-.865.419-1.451.419-.753 0-1.367-.251-1.87-.726-.474-.502-.753-1.172-.81-2.009h7.313v-.558c0-1.675-.447-3.014-1.312-3.963-.865-.949-2.065-1.451-3.572-1.451-1.48 0-2.68.502-3.6 1.479-.893 1.005-1.34 2.316-1.34 3.935 0 1.618.475 2.93 1.396 3.935.92.976 2.148 1.479 3.683 1.479.53 0 1.033-.056 1.48-.168a4.15 4.15 0 0 0 1.255-.53c.391-.251.754-.558 1.089-.92.335-.364.67-.838.976-1.34l-1.981-1.117c-.447.726-.865 1.256-1.256 1.535zm-3.628-5.023c.14-.223.335-.419.53-.586.196-.168.447-.28.698-.39.251-.084.53-.14.81-.14 1.255 0 2.065.642 2.372 1.897h-4.745c.084-.307.196-.558.335-.781zM102.67 15.74c-.39 0-.754.14-1.033.418a1.37 1.37 0 0 0-.418 1.005c0 .418.14.781.418 1.06.28.28.614.419 1.033.419.418 0 .753-.14 1.032-.419.28-.279.419-.642.419-1.032 0-.391-.14-.754-.419-1.033-.307-.279-.642-.418-1.032-.418zM117.21 13.981L114.306 7.2l-2.902 6.781-2.652-5.832h-2.679l5.359 10.995 2.874-6.586 2.846 6.586 5.33-10.995h-2.623zM133.088 9.405c-.92-1.033-2.065-1.563-3.46-1.563-1.172 0-2.233.474-3.181 1.395V8.121h-2.373v15.767h2.373v-6.697c.948.949 2.009 1.45 3.209 1.45 1.395 0 2.54-.501 3.432-1.534.921-1.033 1.368-2.288 1.368-3.823.028-1.535-.447-2.847-1.368-3.88zm-1.841 6.223c-.53.614-1.2.92-2.038.92-.865 0-1.562-.306-2.093-.92-.53-.614-.809-1.423-.809-2.372 0-.977.279-1.758.81-2.372.53-.614 1.227-.893 2.12-.893.81 0 1.507.307 2.037.92.53.615.81 1.424.81 2.4-.028.922-.28 1.703-.837 2.317zM21.712 4.884c-.056-.084-.112-.14-.168-.224a.848.848 0 0 1-.14-.195 5.843 5.843 0 0 0-.67-.781l-.083-.084c-.056-.056-.084-.112-.14-.14-.167-.167-.334-.334-.502-.474-.028-.028-.083-.056-.111-.084a7.816 7.816 0 0 0-.558-.446c-.056-.028-.084-.056-.14-.112-.167-.111-.307-.223-.474-.307a2.548 2.548 0 0 0-.363-.223c-.084-.056-.168-.084-.251-.14a2.454 2.454 0 0 0-.28-.167l-.027-.028c-.224-.14-.503-.251-.754-.363A13.024 13.024 0 0 0 14.82.391c-3.321-.782-6.67-.224-9.46 1.646A11.865 11.865 0 0 0 0 11.972c0 3.014 1.144 5.916 3.181 8.121a11.764 11.764 0 0 0 7.786 3.767h.168c.279 0 .586-.055.837-.195.168-.084.335-.195.475-.335.334-.307.53-.697.586-1.144 0-.084.027-.195.027-.279v-3.572-.084-.028-.028-.14a1.12 1.12 0 0 0-1.116-1.115 3.668 3.668 0 0 1-3.656-3.656v-2.317h7.228v2.289c0 .39-.056.753-.167 1.116a9.828 9.828 0 0 1-1.535 2.316 2.637 2.637 0 0 0 .81 2.372 12.14 12.14 0 0 0 2.818-3.823s.195-.39.307-1.256a4.63 4.63 0 0 0 .056-.67V9.824a1.169 1.169 0 0 0-1.172-1.116h-1.591V6.195a1.12 1.12 0 0 0-1.116-1.116 1.12 1.12 0 0 0-1.117 1.116v2.512h-1.87V6.195A1.12 1.12 0 0 0 9.824 5.08a1.12 1.12 0 0 0-1.116 1.116v2.512H7.144a1.12 1.12 0 0 0-1.116 1.116V13.284c0 1.423.502 2.79 1.451 3.85A5.861 5.861 0 0 0 10.8 19.06v2.512c-.307-.028-.558-.084-.837-.14-4.41-.92-7.703-4.855-7.703-9.46a9.588 9.588 0 0 1 4.354-8.065c2.79-1.842 6.279-2.093 9.572-.698a7.732 7.732 0 0 1 2.958 2.093s2.121 2.317 2.428 5.721c0 .056 0 .112.028.168.14 2.093-.39 4.604-2.484 7.228-.083.53-.083 1.507.782 2.4a12.008 12.008 0 0 0 3.711-6.28c.586-2.539.28-5.274-.893-7.897-.279-.614-.614-1.2-1.004-1.758z"/>
    </g>
</svg>
