<svg xmlns="http://www.w3.org/2000/svg" width="16" height="16" viewBox="0 0 16 16">
    <path fill="#212121" fill-rule="nonzero" d="M8 4.75a3.285 3.285 0 0 0-3.281 3.281A3.285 3.285 0 0 0 8 11.312a3.285 3.285 0 0 0 3.281-3.28A3.285 3.285 0 0 0 8 4.75zm0 0a3.285 3.285 0 0 0-3.281 3.281A3.285 3.285 0 0 0 8 11.312a3.285 3.285 0 0 0 3.281-3.28A3.285 3.285 0 0 0 8 4.75zM13.656 0H2.344A2.345 2.345 0 0 0 0 2.344v11.312A2.345 2.345 0 0 0 2.344 16h11.312A2.345 2.345 0 0 0 16 13.656V2.344A2.345 2.345 0 0 0 13.656 0zM8 12.25a4.225 4.225 0 0 1-4.219-4.219A4.225 4.225 0 0 1 8 3.812a4.225 4.225 0 0 1 4.219 4.22A4.225 4.225 0 0 1 8 12.25zm5.156-8.438a.94.94 0 0 1-.937-.937.94.94 0 0 1 .937-.938.94.94 0 0 1 .938.938.94.94 0 0 1-.938.938zM8 4.75a3.285 3.285 0 0 0-3.281 3.281A3.285 3.285 0 0 0 8 11.312a3.285 3.285 0 0 0 3.281-3.28A3.285 3.285 0 0 0 8 4.75zm0 0a3.285 3.285 0 0 0-3.281 3.281A3.285 3.285 0 0 0 8 11.312a3.285 3.285 0 0 0 3.281-3.28A3.285 3.285 0 0 0 8 4.75zm0 0a3.285 3.285 0 0 0-3.281 3.281A3.285 3.285 0 0 0 8 11.312a3.285 3.285 0 0 0 3.281-3.28A3.285 3.285 0 0 0 8 4.75z"/>
</svg>
