<svg xmlns="http://www.w3.org/2000/svg" width="408" height="1283" viewBox="0 0 408 1283">
    <g fill="none" fill-rule="evenodd">
        <path fill="#4CBAD8" d="M1311.804 1273.064c35.127 27.562-136.254 56.992-514.143 88.289-271.458 22.482-610.14-135.215-611.915-366.087-1.137-147.817 180.31-364.343 293.338-550.158 79.064-129.979 97.552-262.798 112-270.5 92.233-49.17 279.766-3.183 352 8.5 75.307 12.18 169.112 111.963 281.414 299.347l87.306 790.61z" opacity=".6"/>
        <path fill="#FAEC8C" d="M1126.104 1099.673c35.128 27.562-136.253 56.991-514.143 88.288C340.504 1210.443 1.821 1052.747.046 821.874c-1.136-147.816 180.31-364.343 293.339-550.157 79.064-129.979 97.552-262.798 112-270.5 92.232-49.17 279.766-3.184 352 8.5 75.307 12.18 169.112 111.963 281.413 299.347l87.306 790.61z"/>
    </g>
</svg>
